<svg width="152" height="184" viewBox="0 0 152 184" fill="none" xmlns="http://www.w3.org/2000/svg">
<g clip-path="url(#clip0_27_7)">
<rect width="152" height="184" fill="white"/>
<path d="M126.522 125.777C122.929 161.967 92.3965 190.23 55.2617 190.23C18.1269 190.23 -12.4066 161.967 -16 125.777H18.7119C22.0513 142.917 37.1447 155.855 55.2617 155.855C73.3787 155.855 88.4712 142.917 91.8105 125.777H126.522ZM55.2617 47C92.3968 47.0001 122.929 75.2645 126.522 111.454H91.8105C88.4715 94.3136 73.379 81.3751 55.2617 81.375C37.1445 81.3751 22.052 94.3136 18.7129 111.454H-16C-12.407 75.2645 18.1266 47.0001 55.2617 47Z" fill="#D9D9D9"/>
<circle cx="55.2616" cy="118.615" r="22.9169" fill="#D9D9D9"/>
</g>
<defs>
<clipPath id="clip0_27_7">
<rect width="152" height="184" fill="white"/>
</clipPath>
</defs>
</svg>
